<?xml version="1.0" standalone="no"?>
<!DOCTYPE svg PUBLIC "-//W3C//DTD SVG 20010904//EN"
 "http://www.w3.org/TR/2001/REC-SVG-20010904/DTD/svg10.dtd">
<svg version="1.0" xmlns="http://www.w3.org/2000/svg"
 width="300.000000pt" height="300.000000pt" viewBox="0 0 300.000000 300.000000"
 preserveAspectRatio="xMidYMid meet">

<g transform="translate(0.000000,300.000000) scale(0.100000,-0.100000)"
fill="#000000" stroke="none">
<path d="M2104 1759 c-118 -14 -230 -94 -284 -202 -30 -61 -38 -117 -24 -186
9 -42 24 -39 24 4 0 72 55 155 125 186 24 11 64 19 98 19 95 0 147 43 147 123
0 54 -15 64 -86 56z"/>
<path d="M229 1747 c-91 -34 -155 -93 -196 -182 -65 -141 -13 -282 121 -325
46 -15 174 -6 193 13 7 7 19 45 26 85 14 73 14 74 -7 67 -12 -4 -42 -9 -68
-12 -40 -5 -50 -2 -72 20 -34 34 -41 67 -22 110 22 53 69 79 131 74 28 -2 56
-6 64 -8 11 -3 18 15 27 71 8 41 10 78 6 82 -16 16 -165 19 -203 5z"/>
<path d="M573 1753 c-83 -4 -72 17 -104 -198 -26 -178 -22 -230 21 -274 60
-59 206 -66 301 -15 49 27 90 76 109 129 8 25 60 327 60 352 0 6 -170 6 -177
-1 -1 -1 -13 -76 -27 -166 -22 -137 -29 -168 -47 -182 -26 -22 -52 -23 -69 -3
-10 12 -9 44 9 168 12 83 25 162 28 175 4 17 1 22 -13 20 -11 -1 -51 -4 -91
-5z"/>
<path d="M1107 1746 c-49 -18 -64 -32 -89 -80 -25 -48 -29 -136 -10 -182 16
-37 56 -62 115 -70 57 -8 72 -17 63 -39 -5 -15 -15 -17 -63 -12 -31 3 -78 17
-104 31 l-48 25 -6 -37 c-4 -20 -9 -49 -12 -65 -4 -25 0 -29 50 -52 66 -30
165 -42 224 -26 149 40 195 246 69 302 -23 9 -59 21 -81 25 -48 8 -66 20 -58
40 8 21 90 17 142 -6 24 -11 46 -19 48 -17 1 2 8 30 14 63 10 54 9 60 -10 75
-44 36 -175 49 -244 25z"/>
<path d="M1609 1753 l-177 -3 -6 -58 c-4 -31 -9 -65 -12 -74 -5 -16 2 -18 51
-18 l56 0 -6 -32 c-3 -18 -14 -94 -25 -168 -12 -74 -23 -143 -26 -152 -5 -16
3 -18 68 -18 40 0 78 4 84 8 6 4 22 77 34 162 31 206 28 200 89 200 l49 0 11
63 c14 81 14 98 -1 95 -7 -1 -92 -4 -189 -5z"/>
<path d="M2528 1753 c-67 -4 -67 -4 -73 -36 -3 -18 -21 -126 -39 -242 -19
-115 -37 -218 -41 -228 -7 -16 -1 -18 71 -15 l79 3 6 40 c4 22 10 66 14 98 3
31 10 57 13 57 4 0 23 -45 42 -100 l34 -101 55 3 c63 3 53 -8 121 138 l35 75
3 -108 3 -108 72 3 72 3 3 264 2 263 -22 -6 c-13 -3 -47 -6 -76 -6 l-53 0 -64
-132 c-36 -73 -70 -142 -77 -153 -11 -20 -20 4 -89 258 -5 20 -13 36 -17 35
-4 -1 -37 -3 -74 -5z"/>
<path d="M2209 1703 c7 -93 -43 -139 -160 -146 -128 -8 -198 -75 -207 -195 -4
-67 -4 -69 24 -89 31 -22 63 -34 78 -30 5 1 8 28 7 60 -2 53 0 60 31 91 31 31
40 34 114 41 101 9 148 33 189 99 25 41 30 60 30 110 0 60 0 60 -40 83 -61 35
-71 31 -66 -24z"/>
<path d="M2340 1622 c0 -44 -21 -91 -61 -137 -44 -50 -100 -75 -171 -75 -31 0
-68 -4 -82 -10 -32 -12 -56 -58 -56 -107 0 -60 9 -67 77 -61 113 11 235 96
291 203 21 40 26 64 27 122 0 45 -5 77 -12 84 -11 11 -13 7 -13 -19z"/>
</g>
</svg>
